<?xml version="1.0" encoding="UTF-8"?>
<svg id="Capa_1" xmlns="http://www.w3.org/2000/svg" version="1.1" viewBox="0 0 32 32">
  <!-- Generator: Adobe Illustrator 29.8.5, SVG Export Plug-In . SVG Version: 2.1.1 Build 2)  -->
  <defs>
    <style>
      .st0 {
        fill: #ed6d05;
      }

      .st1 {
        fill: #fff;
      }
    </style>
  </defs>
  <path class="st1" d="M16.25,21.96s-.1-.07-.16-.07h-2.82c-.13,0-.23.1-.23.23v3.47c0,.13.1.23.23.23h3.73c.81,0,1.59-.1,2.35-.28.17-.04.23-.26.11-.38l-3.2-3.2Z"/>
  <path class="st1" d="M16.89,6.17H5.41c-.13,0-.23.1-.23.23v19.2c0,.13.1.23.23.23h3.47c.13,0,.23-.1.23-.23v-7.63s7.89,0,7.89,0c1.07,0,1.94-.86,1.96-1.93.02-1.1-.91-2-2.01-2h-7.84v-3.93h7.81c3.17,0,5.91,2.59,5.98,5.77.04,1.89-.8,3.57-2.15,4.68-.1.09-.11.24-.02.34.51.51,1.99,1.99,2.46,2.46.08.08.22.09.31.01,2.03-1.8,3.31-4.42,3.32-7.35,0-5.41-4.52-9.84-9.94-9.84Z"/>
  <path class="st0" d="M16.88,2.38H2.12c-.4,0-.73.33-.73.73v25.77c0,.4.33.73.73.73h14.88c7.51,0,13.62-6.11,13.62-13.62,0-7.49-6.25-13.61-13.73-13.61ZM19.34,25.54c-.75.18-1.54.28-2.35.28h-3.73c-.13,0-.23-.1-.23-.23v-3.47c0-.13.1-.23.23-.23h2.82c.06,0,.12.02.16.07l3.2,3.2c.13.13.07.34-.11.38ZM23.5,23.36c-.09.08-.23.07-.31-.01-.48-.48-1.95-1.95-2.46-2.46-.09-.09-.09-.25.02-.34,1.34-1.11,2.19-2.8,2.15-4.68-.07-3.17-2.81-5.77-5.98-5.77h-7.81v3.93h7.84c1.1,0,2.03.9,2.01,2-.02,1.07-.89,1.93-1.96,1.93,0,0-7.89,0-7.89,0v7.63c0,.13-.1.23-.23.23h-3.47c-.13,0-.23-.1-.23-.23V6.4c0-.13.1-.23.23-.23h11.48c5.41,0,9.94,4.43,9.94,9.84,0,2.93-1.29,5.55-3.32,7.35Z"/>
</svg>